<svg width="288" height="56" viewBox="0 0 288 56" fill="none" xmlns="http://www.w3.org/2000/svg">
<path fill-rule="evenodd" clip-rule="evenodd" d="M7.99633 16.001V36.0003C7.99633 42.6294 13.3702 48.0033 19.9993 48.0033L39.9986 48.0033L39.9986 55.9996L19.9993 55.9996C8.95399 55.9996 0 47.0456 0 36.0003V16.001H7.99633Z" fill="#00796B"/>
<path fill-rule="evenodd" clip-rule="evenodd" d="M7.99633 2.54175e-07L7.99633 23.9975L-7.62796e-07 23.9975L0 0L7.99633 2.54175e-07Z" fill="#00796B"/>
<path fill-rule="evenodd" clip-rule="evenodd" d="M16.0012 0H19.9993C31.0446 0 39.9986 8.954 39.9986 19.9993L39.9986 31.998L8.7654e-07 31.998L0 24.0017L32.0023 24.0017L32.0023 19.9993C32.0023 13.3702 26.6284 7.99633 19.9993 7.99633H16.0012V0Z" fill="#00796B"/>
<path fill-rule="evenodd" clip-rule="evenodd" d="M63.9963 2.54175e-07L63.9963 23.9975L56 23.9975L56 0L63.9963 2.54175e-07Z" fill="#00796B"/>
<path fill-rule="evenodd" clip-rule="evenodd" d="M63.9963 16.001L63.9964 36.0003C63.9964 42.6294 69.3703 48.0033 75.9994 48.0033H79.9976V55.9996H75.9994C64.9541 55.9996 56.0001 47.0456 56.0001 36.0003L56 16.001L63.9963 16.001Z" fill="#00796B"/>
<path fill-rule="evenodd" clip-rule="evenodd" d="M99.9963 2.54175e-07L99.9963 23.9975L92 23.9975L92 0L99.9963 2.54175e-07Z" fill="#00796B"/>
<path fill-rule="evenodd" clip-rule="evenodd" d="M99.9963 16.001L99.9963 39.9985L92 39.9985L92 16.001L99.9963 16.001Z" fill="#00796B"/>
<path fill-rule="evenodd" clip-rule="evenodd" d="M99.9963 32.0024L99.9963 55.9999L92 55.9999L92 32.0024L99.9963 32.0024Z" fill="#00796B"/>
<path fill-rule="evenodd" clip-rule="evenodd" d="M148.008 39.999L148.008 19.9997C148.008 13.3706 142.634 7.99673 136.005 7.99673L116.005 7.99673L116.005 0.000401367L136.005 0.00039961C147.05 0.000400575 156.004 8.95439 156.004 19.9997L156.004 39.999L148.008 39.999Z" fill="#00796B"/>
<path fill-rule="evenodd" clip-rule="evenodd" d="M148.008 56.0005L148.008 32.003L156.004 32.003L156.004 56.0005L148.008 56.0005Z" fill="#00796B"/>
<path fill-rule="evenodd" clip-rule="evenodd" d="M140.003 56.0005L136.005 56.0005C124.959 56.0005 116.005 47.0465 116.005 36.0012L116.005 24.0025L156.004 24.0025L156.004 31.9988L124.002 31.9988L124.002 36.0012C124.002 42.6302 129.376 48.0042 136.005 48.0042L140.003 48.0042L140.003 56.0005Z" fill="#00796B"/>
<path fill-rule="evenodd" clip-rule="evenodd" d="M280 56.0005L280 32.003L287.996 32.003L287.996 56.0005L280 56.0005Z" fill="#00796B"/>
<path fill-rule="evenodd" clip-rule="evenodd" d="M280.004 39.999L280.004 19.9997C280.004 13.3706 274.63 7.99673 268.001 7.99673L248.001 7.99673L248.001 0.000401367L268.001 0.00039961C279.046 0.000400575 288 8.95439 288 19.9997L288 39.999L280.004 39.999Z" fill="#00796B"/>
<path fill-rule="evenodd" clip-rule="evenodd" d="M271.999 56.0005L268.001 56.0005C256.955 56.0005 248.001 47.0465 248.001 36.0012L248.001 24.0025L288 24.0025L288 31.9988L255.998 31.9988L255.998 36.0012C255.998 42.6302 261.372 48.0042 268.001 48.0042L271.999 48.0042L271.999 56.0005Z" fill="#00796B"/>
<path fill-rule="evenodd" clip-rule="evenodd" d="M219.996 56L219.996 32.0025L212 32.0025L212 56L219.996 56Z" fill="#00796B"/>
<path fill-rule="evenodd" clip-rule="evenodd" d="M212 19.9993C212 8.954 220.954 0 231.999 0H235.997V7.99633H231.999C225.37 7.99633 219.996 13.3702 219.996 19.9993L219.996 39.9986L212 39.9986L212 19.9993Z" fill="#00796B"/>
<path fill-rule="evenodd" clip-rule="evenodd" d="M188 2.54175e-07L188 23.9975L180.004 23.9975L180.004 0L188 2.54175e-07Z" fill="#00796B"/>
<path fill-rule="evenodd" clip-rule="evenodd" d="M188 16.001L188 39.9985L180.004 39.9985L180.004 16.001L188 16.001Z" fill="#00796B"/>
<path fill-rule="evenodd" clip-rule="evenodd" d="M188 32.0024L188 55.9999L180.004 55.9999L180.004 32.0024L188 32.0024Z" fill="#00796B"/>
<path fill-rule="evenodd" clip-rule="evenodd" d="M204 7.99658L180.003 7.99658L180.003 0.000250533L204 0.000250533L204 7.99658Z" fill="#00796B"/>
<path fill-rule="evenodd" clip-rule="evenodd" d="M187.996 7.99658L163.999 7.99658L163.999 0.000250533L187.996 0.000250533L187.996 7.99658Z" fill="#00796B"/>
</svg>
