<svg width="3840" height="880" fill="none" xmlns="http://www.w3.org/2000/svg"><g clip-path="url(#a)" fill-rule="evenodd" clip-rule="evenodd" fill="#B2DFDB"><path d="M3820.66 492.795v-37.427h19.33v37.427h-19.33ZM3820.66 804.681v-37.426h19.33v37.426h-19.33ZM3820.66 180.908v-37.427h19.33v37.427h-19.33ZM3257.01 220.349v96.647h-19.33V278.34h-38.66v-19.329h38.66v-38.662h19.33ZM3295.67 162.36h9.66c16.02 0 29-12.981 29-28.994V85.042h19.33v48.324c0 26.688-21.64 48.324-48.33 48.324h-9.66v-19.33ZM3199.01 181.69v-9.665c0-16.013-12.98-28.994-28.99-28.994h-48.32v-19.33h48.32c26.69 0 48.32 21.636 48.32 48.324v9.665h-19.33ZM2967.07 297.667h-9.67c-16.01 0-28.99 12.981-28.99 28.994v48.324h-19.33v-48.324c0-26.688 21.63-48.324 48.32-48.324h9.67v19.33ZM3083.04 355.655h19.33v-57.988h-19.33v-19.33h38.66v77.318h19.33v19.33h-57.99v-19.33ZM2947.74 152.696v-19.329l-57.99-.001v19.33h-19.33v-38.659h77.32v-19.33h19.33v57.989h-19.33ZM3005.72 374.985v-57.989h19.33v57.989h-19.33ZM3102.37 220.349h57.99v19.329h-57.99v-19.329ZM3334.33 278.337v-57.988h19.33v57.988h-19.33ZM2909.08 220.349h57.99v19.329h-57.99v-19.329ZM2686.78 288.002h57.99v19.33h-57.99v-19.33ZM3257.01 65.713v57.989h-19.33V65.713h19.33ZM2967.07 27.055h57.98v19.329h-57.98v-19.33ZM3295.67 27.055h57.99v19.329h-57.99v-19.33ZM3199.02 355.655h57.99v19.33h-57.99v-19.33ZM3063.71 201.019v9.665c0 26.688-21.63 48.324-48.32 48.324h-9.66v-19.33h9.66c16.01 0 29-12.981 29-28.994v-9.665h19.32ZM3150.7 65.713V56.05c0-26.689 21.63-48.324 48.32-48.324h9.66v19.33h-9.66c-16.01 0-29 12.98-29 28.994v9.664h-19.32ZM3295.67 316.997h9.66c26.69 0 48.33 21.635 48.33 48.324v9.664h-19.33v-9.664c0-16.013-12.98-28.994-29-28.994h-9.66v-19.33ZM3063.71 143.032V85.043h19.33v57.989h-19.33ZM1324.06 703.585v96.648h-19.33v-38.656h-38.66v-19.329h38.66v-38.663h19.33ZM1237.07 664.927v-9.664c0-16.013-12.98-28.995-28.99-28.995h-48.32v-19.329h48.32c26.69 0 48.32 21.635 48.32 48.324v9.664h-19.33ZM1034.12 780.904h-9.66c-16.02 0-28.998 12.981-28.998 28.994v48.323h-19.329v-48.323c0-26.689 21.635-48.324 48.327-48.324h9.66v19.33ZM1150.09 838.891h19.33v-57.988h-19.33v-19.329h38.66v77.317h19.33v19.33h-57.99v-19.33ZM1072.78 858.221v-57.989h19.33v57.989h-19.33ZM1169.43 703.586h57.98v19.329h-57.98v-19.329ZM1401.38 761.574v-57.988h19.33v57.988h-19.33ZM992.602 674.592h57.988v19.329h-57.988v-19.329ZM1266.07 838.891h57.99v19.33h-57.99v-19.33ZM1130.77 684.256v9.665c0 26.688-21.64 48.323-48.32 48.323h-9.67v-19.329h9.67c16.01 0 28.99-12.981 28.99-28.994v-9.665h19.33ZM1362.73 800.233h9.66c26.69 0 48.32 21.635 48.32 48.324v9.665h-19.32v-9.665c0-16.013-12.99-28.994-29-28.994h-9.66v-19.33ZM2290.53 703.585v96.648h-19.33v-38.656h-38.66v-19.329h38.66v-38.663h19.33ZM2329.19 645.598h9.66c16.02 0 29-12.981 29-28.994V568.28h19.33v48.324c0 26.688-21.64 48.323-48.33 48.323h-9.66v-19.329ZM2242.21 645.597v-9.665c0-16.013-12.98-28.994-28.99-28.994h-48.32v-19.33h48.32c26.69 0 48.32 21.636 48.32 48.324v9.665h-19.33ZM2000.59 780.904h-9.66c-16.01 0-29 12.981-29 28.994v48.323h-19.32v-48.323c0-26.689 21.63-48.324 48.32-48.324h9.66v19.33ZM2116.57 838.891h19.33v-57.988h-19.33v-19.329h38.66v77.317h19.32v19.33h-57.98v-19.33ZM2068.24 626.269v-19.33h-57.98v19.329h-19.33V587.61h77.31v-19.33h19.33v57.989h-19.33ZM2039.25 858.221v-57.989h19.33v57.989h-19.33ZM2135.9 703.586h57.99v19.329h-57.99v-19.329ZM2367.85 761.574v-57.988h19.33v57.988h-19.33ZM1942.61 703.586h57.99v19.329h-57.99v-19.329ZM2232.55 838.891h57.99v19.33h-57.99v-19.33ZM2097.24 684.256v9.665c0 26.688-21.63 48.323-48.32 48.323h-9.67v-19.329h9.67c16.01 0 28.99-12.981 28.99-28.994v-9.665h19.33ZM2329.19 800.233h9.66c26.69 0 48.33 21.635 48.33 48.324v9.665h-19.33v-9.665c0-16.013-12.98-28.994-29-28.994h-9.66v-19.33ZM3257.01 703.585v96.648h-19.33v-38.656h-38.66v-19.329h38.66v-38.663h19.33ZM3295.67 645.598h9.66c16.02 0 29-12.981 29-28.994V568.28h19.33v48.324c0 26.688-21.64 48.323-48.33 48.323h-9.66v-19.329ZM3199.01 664.927v-9.664c0-16.013-12.98-28.995-28.99-28.995h-48.32v-19.329h48.32c26.69 0 48.32 21.635 48.32 48.324v9.664h-19.33ZM2967.07 780.904h-9.67c-16.01 0-28.99 12.981-28.99 28.994v48.323h-19.33v-48.323c0-26.689 21.63-48.324 48.32-48.324h9.67v19.33ZM3083.04 838.891h19.33v-57.988h-19.33v-19.329h38.66v77.317h19.33v19.33h-57.99v-19.33ZM2986.39 645.597v-19.33h-57.99v19.329h-19.32v-38.658h77.31v-19.33h19.33v57.989h-19.33ZM3005.72 858.221v-57.989h19.33v57.989h-19.33ZM3102.37 703.586h57.99v19.329h-57.99v-19.329ZM2909.07 568.28v-57.989h19.33v57.989h-19.33ZM3005.72 471.632v-57.988h19.33v57.988h-19.33ZM3334.33 761.574v-57.988h19.33v57.988h-19.33ZM2909.08 703.586h57.99v19.329h-57.99v-19.329ZM3257.01 548.95v57.988h-19.33V548.95h19.33ZM3005.72 510.291h57.99v19.33h-57.99v-19.33ZM3150.7 413.644h57.98v19.329h-57.98v-19.329ZM3295.67 510.291h57.99v19.33h-57.99v-19.33ZM3199.02 838.891h57.99v19.33h-57.99v-19.33ZM3063.71 684.256v9.665c0 26.688-21.63 48.323-48.32 48.323h-9.66v-19.329h9.66c16.01 0 29-12.981 29-28.994v-9.665h19.32ZM3150.7 548.95v-9.665c0-26.688 21.63-48.323 48.32-48.323h9.66v19.329h-9.66c-16.01 0-29 12.981-29 28.994v9.665h-19.32ZM2967.07 471.632h-9.67c-26.69 0-48.32-21.635-48.32-48.324v-9.664h19.33v9.664c0 16.013 12.98 28.994 28.99 28.994l9.67.001v19.329ZM3295.67 800.233h9.66c26.69 0 48.33 21.635 48.33 48.324v9.665h-19.33v-9.665c0-16.013-12.98-28.994-29-28.994h-9.66v-19.33ZM3063.71 413.645h9.67c26.69 0 48.32 21.635 48.32 48.323v9.665h-19.33v-9.665c0-16.013-12.98-28.994-28.99-28.994h-9.67v-19.329ZM3276.34 413.645v19.329h57.99v-19.329h19.33v38.659h-77.32v19.329h-19.33v-57.988h19.33ZM3063.71 626.267v-57.988h19.33v57.988h-19.33ZM2870.42 220.35v57.988h-19.33V220.35h19.33ZM2793.09 307.332h9.66c26.69 0 48.33 21.635 48.33 48.323v9.665h-19.33v-9.665c0-16.013-12.98-28.994-29-28.994h-9.66v-19.329ZM550.887 626.268h-9.665c-16.013 0-28.994 12.981-28.994 28.994v48.324h-19.33v-48.324c0-26.688 21.636-48.323 48.324-48.323h9.665v19.329ZM647.536 606.939v9.664c0 16.014 12.982 28.995 28.995 28.995h48.323v19.329h-48.323c-26.689 0-48.324-21.635-48.324-48.324v-9.664h19.329ZM879.486 606.938v19.33h57.988v-19.329h19.33l-.001 38.658h-77.317v19.33h-19.33v-57.989h19.33ZM937.478 703.586v57.989h-19.33v-57.989h19.33ZM840.826 800.233v57.989h-19.33v-57.989h19.33ZM589.546 722.915v-57.988h19.329v57.988h-19.329ZM840.828 761.575H782.84v-19.33h57.988v19.33ZM695.852 858.222h-57.989v-19.33h57.989v19.33ZM550.887 761.575h-57.989v-19.33h57.989v19.33ZM695.852 722.915v9.665c0 26.688-21.636 48.323-48.324 48.323h-9.665v-19.329h9.665c16.013 0 28.994-12.981 28.994-28.994v-9.665h19.33ZM879.484 800.233h9.665c26.689 0 48.324 21.635 48.324 48.324v9.665h-19.33v-9.665c0-16.013-12.981-28.994-28.994-28.994h-9.665v-19.33ZM782.84 858.222h-9.665c-26.688 0-48.323-21.635-48.323-48.324v-9.665h19.329v9.665c0 16.013 12.981 28.994 28.994 28.994h9.665v19.33ZM570.221 858.222v-19.33h-57.988v19.329h-19.33l.001-38.658h77.317v-19.33h19.33v57.989h-19.33ZM782.833 645.598v57.988h-19.329v-57.988h19.329ZM1527.02 616.602h-9.67c-16.01 0-28.99 12.982-28.99 28.995v48.323h-19.33v-48.323c0-26.689 21.64-48.324 48.32-48.324h9.67v19.329ZM1604.34 626.269v9.664c0 16.013 12.98 28.994 29 28.994h48.32v19.33h-48.32c-26.69 0-48.33-21.635-48.33-48.324v-9.664h19.33ZM1845.96 626.268v19.33h57.99v-19.329h19.33v38.658h-77.32v19.33h-19.33v-57.989h19.33ZM1903.94 703.586v57.989h-19.33v-57.989h19.33ZM1807.3 800.233v57.989h-19.33v-57.989h19.33ZM1807.3 761.575h-57.98v-19.33h57.98v19.33ZM1662.32 858.222h-57.98v-19.33h57.98v19.33ZM1517.36 761.575h-57.99v-19.33h57.99v19.33ZM1401.38 635.933h-57.99v-19.329h57.99v19.329ZM1662.32 722.915v9.665c0 26.688-21.63 48.323-48.32 48.323h-9.66v-19.329h9.66c16.01 0 28.99-12.981 28.99-28.994v-9.665h19.33ZM1845.95 800.233h9.67c26.69 0 48.32 21.635 48.32 48.324v9.665h-19.33v-9.665c0-16.013-12.98-28.994-28.99-28.994h-9.67v-19.33ZM1749.3 858.222h-9.66c-26.69 0-48.32-21.635-48.32-48.324v-9.665h19.33v9.665c0 16.013 12.98 28.994 28.99 28.994h9.66v19.33ZM1536.69 858.222v-19.33h-57.99v19.33l-19.33-.001v-38.658h77.32v-19.33h19.33v57.989h-19.33ZM1758.98 606.939v57.989h-19.33v-57.989h19.33ZM2522.49 568.28v-96.648h19.33v38.656h38.66v19.33h-38.66v38.662h-19.33ZM2483.83 626.268h-9.67c-16.01 0-28.99 12.981-28.99 28.994v48.324h-19.33v-48.324c0-26.688 21.63-48.323 48.32-48.323h9.67v19.329ZM2580.47 606.939v9.664c0 16.014 12.99 28.995 29 28.995h48.32v19.329h-48.32c-26.69 0-48.33-21.635-48.33-48.324v-9.664h19.33ZM2812.43 490.963h9.66c16.02 0 29-12.982 29-28.995v-48.323h19.33v48.323c0 26.689-21.64 48.324-48.33 48.324h-9.66v-19.329ZM2677.12 403.98h-19.32v57.988h19.32v19.33h-38.65V403.98h-19.33v-19.329h57.98v19.329ZM2793.1 626.268v19.33h57.98v-19.329h19.33v38.658h-77.31v19.33h-19.33v-57.989h19.33ZM2773.77 413.645v57.988h-19.33v-57.988h19.33ZM2677.12 568.28l-57.98-.001V548.95h57.98v19.33ZM2870.42 703.586v57.989h-19.33v-57.989h19.33ZM2773.77 800.233v57.989h-19.33v-57.989h19.33ZM2445.17 481.298v57.988h-19.33v-57.988h19.33ZM2870.42 568.28l-57.99-.001V548.95h57.99v19.33ZM2522.49 722.915v-57.988h19.33v57.988h-19.33ZM2773.77 761.575h-57.99v-19.33h57.99v19.33ZM2628.8 858.222h-57.99v-19.33h57.99v19.33ZM2483.83 761.575h-57.99v-19.33h57.99v19.33ZM2715.78 587.609v-9.665c0-26.688 21.64-48.323 48.32-48.323h9.67v19.329h-9.67c-16.01 0-28.99 12.981-28.99 28.994v9.665h-19.33ZM2628.8 722.915v9.665c0 26.688-21.63 48.323-48.32 48.323h-9.67v-19.329h9.67c16.01 0 28.99-12.981 28.99-28.994v-9.665h19.33ZM2812.43 800.233h9.66c26.69 0 48.33 21.635 48.33 48.324v9.665h-19.33v-9.665c0-16.013-12.98-28.994-29-28.994h-9.66v-19.33ZM2715.78 858.222h-9.66c-26.69 0-48.33-21.635-48.33-48.324v-9.665h19.33v9.665c0 16.013 12.98 28.994 29 28.994h9.66v19.33ZM2503.16 858.222v-19.33h-57.99v19.329h-19.33v-38.658h77.32v-19.33h19.33v57.989h-19.33ZM2715.79 645.598v57.988h-19.33v-57.988h19.33ZM3743.35 220.349v96.647h-19.33V278.34h-38.66v-19.329h38.66v-38.662h19.33Z"/><path d="M3782.01 162.36h9.66c16.02 0 29-12.981 29-28.994V85.042H3840v48.324c0 26.688-21.64 48.324-48.33 48.324h-9.66v-19.33ZM3685.36 181.69v-9.665c0-16.013-12.98-28.994-29-28.994h-48.32v-19.33h48.32c26.69 0 48.33 21.636 48.33 48.324v9.665h-19.33ZM3453.4 297.667h-9.66c-16.02 0-29 12.981-29 28.994v48.324h-19.33v-48.324c0-26.688 21.64-48.324 48.33-48.324h9.66v19.33ZM3569.38 355.655h19.33v-57.989h-19.33v-19.329h38.66v77.318h19.33v19.329h-57.99v-19.329ZM3472.74 162.361v-19.33h-57.99v19.329h-19.33v-38.658h77.32v-19.33h19.33v57.989h-19.33ZM3492.06 374.984v-57.988h19.33v57.988h-19.33ZM3588.71 220.349h57.99v19.329h-57.99v-19.329ZM3395.42 85.043V27.055h19.33v57.988h-19.33ZM3395.42 220.349h57.99v19.329h-57.99v-19.329ZM3743.35 65.713V123.7h-19.33V65.713h19.33ZM3492.07 27.055h57.98v19.329h-57.98v-19.33ZM3782.01 27.055H3840v19.329h-57.99v-19.33ZM3685.36 355.655h57.99v19.329h-57.99v-19.329ZM3550.05 201.019v9.665c0 26.688-21.63 48.324-48.32 48.324h-9.66v-19.33h9.66c16.01 0 29-12.981 29-28.994v-9.665h19.32ZM3637.04 65.713v-9.665c0-26.688 21.64-48.323 48.33-48.323h9.66v19.329h-9.66c-16.02 0-29 12.981-29 28.994v9.665h-19.33ZM3782.01 316.996h9.66c26.69 0 48.33 21.635 48.33 48.324v9.664h-19.33v-9.664c0-16.013-12.98-28.994-29-28.994h-9.66v-19.33ZM3550.05 143.031V85.043h19.33v57.988h-19.33ZM3743.35 703.585v96.648h-19.33v-38.656h-38.66v-19.329h38.66v-38.663h19.33ZM3782.01 645.597h9.66c16.02 0 29-12.981 29-28.994V568.28H3840v48.323c0 26.689-21.64 48.324-48.33 48.324h-9.66v-19.33ZM3685.36 664.927v-9.665c0-16.013-12.98-28.994-29-28.994h-48.32v-19.33h48.32c26.69 0 48.33 21.636 48.33 48.324v9.665h-19.33ZM3453.4 780.903h-9.66c-16.02 0-29 12.981-29 28.994v48.324h-19.33v-48.324c0-26.688 21.64-48.323 48.33-48.323h9.66v19.329ZM3569.38 838.891h19.33v-57.988h-19.33v-19.329h38.66v77.317h19.33v19.33h-57.99v-19.33ZM3472.74 645.597v-19.33h-57.99v19.329h-19.33v-38.658h77.32v-19.33h19.33v57.989h-19.33ZM3492.06 858.221v-57.989h19.33v57.989h-19.33ZM3588.71 703.586h57.99v19.329h-57.99v-19.329ZM3395.42 568.279v-57.988h19.33v57.988h-19.33ZM3492.06 471.632v-57.988h19.33v57.988h-19.33ZM3395.42 703.586h57.99v19.329h-57.99v-19.329ZM3743.35 548.95v57.988h-19.33V548.95h19.33ZM3492.07 510.291h57.98v19.33h-57.98v-19.33ZM3637.04 413.643h57.99v19.33h-57.99v-19.33ZM3782.01 510.291H3840v19.33h-57.99v-19.33ZM3685.36 838.891h57.99v19.33h-57.99v-19.33ZM3550.05 684.255v9.665c0 26.689-21.63 48.324-48.32 48.324h-9.66v-19.33h9.66c16.01 0 29-12.981 29-28.994v-9.665h19.32ZM3637.04 548.95v-9.665c0-26.688 21.64-48.323 48.33-48.323h9.66v19.329h-9.66c-16.02 0-29 12.981-29 28.994v9.665h-19.33ZM3453.4 471.632h-9.66c-26.69 0-48.33-21.635-48.33-48.324v-9.664h19.33v9.664c0 16.013 12.98 28.994 29 28.994l9.66.001v19.329ZM3782.01 800.233h9.66c26.69 0 48.33 21.635 48.33 48.323v9.665h-19.33v-9.665c0-16.013-12.98-28.994-29-28.994h-9.66v-19.329ZM3550.05 413.644h9.67c26.69 0 48.32 21.635 48.32 48.323v9.665h-19.33v-9.665c0-16.013-12.98-28.994-28.99-28.994h-9.67v-19.329ZM3762.68 413.644v19.329h57.99v-19.329H3840v38.659h-77.32v19.329h-19.33v-57.988h19.33ZM3550.05 626.267v-57.988h19.33v57.988h-19.33ZM347.938 703.585l-.001 96.648h-19.329v-38.656h-38.659v-19.329h38.659v-38.663h19.33ZM367.262 645.597h9.664c16.013 0 28.995-12.981 28.995-28.994V568.28h19.329v48.323c0 26.689-21.635 48.324-48.324 48.324h-9.664v-19.33ZM260.952 655.261v-9.664c0-16.013-12.981-28.995-28.994-28.995h-48.324v-19.329h48.324c26.688 0 48.323 21.635 48.323 48.324v9.664h-19.329ZM57.988 780.903h-9.664c-16.014 0-28.995 12.981-28.995 28.994v48.324H0v-48.324c0-26.688 21.636-48.323 48.325-48.323h9.664v19.329ZM173.973 838.891h19.329v-57.988h-19.329v-19.329h38.659v77.317h19.329v19.33h-57.988v-19.33ZM77.323 645.597v-19.33H19.335v19.329H.005v-38.658h77.318v-19.33h19.33v57.989h-19.33ZM96.643 858.221v-57.989h19.33v57.989h-19.33ZM193.301 703.586h57.988v19.329h-57.988v-19.329ZM425.253 761.574v-57.989h19.329v57.989h-19.329ZM.004 703.586h57.988v19.329H.004v-19.329ZM289.941 838.891h57.989v19.33h-57.989v-19.33ZM154.637 684.255v9.665c0 26.689-21.636 48.324-48.324 48.324h-9.665v-19.33h9.665c16.013 0 28.994-12.981 28.994-28.994v-9.665h19.33ZM386.594 800.233h9.664c26.689 0 48.324 21.635 48.324 48.323v9.665h-19.329v-9.665c0-16.013-12.981-28.994-28.995-28.994h-9.664v-19.329Z"/></g><defs><clipPath id="a"><path fill="#fff" d="M0 0h3840v880H0z"/></clipPath></defs></svg>